<svg id="Calque_1" data-name="Calque 1" xmlns="http://www.w3.org/2000/svg" viewBox="0 0 50 50"><defs><style>.cls-1{fill:none;stroke:#000333;stroke-linecap:round;stroke-linejoin:round;}</style></defs><title>phone-b</title><path class="cls-1" d="M37,29.84V33a2,2,0,0,1-.75,1.57,2.4,2.4,0,0,1-1.77.55,24.11,24.11,0,0,1-10-3.26,21.66,21.66,0,0,1-6.94-6.37A20,20,0,0,1,14,16.32a2,2,0,0,1,.11-.87,2.18,2.18,0,0,1,.48-.76,2.29,2.29,0,0,1,.78-.51,2.44,2.44,0,0,1,.93-.18h3.47a2.43,2.43,0,0,1,1.53.51,2.09,2.09,0,0,1,.78,1.32,12.9,12.9,0,0,0,.81,3A1.94,1.94,0,0,1,23,20a2.07,2.07,0,0,1-.62,1.05L20.91,22.4a17.86,17.86,0,0,0,6.94,6.37l1.47-1.35A2.48,2.48,0,0,1,31.76,27a17,17,0,0,0,3.25.74,2.36,2.36,0,0,1,1.44.73A2,2,0,0,1,37,29.84Z"/></svg>