<svg width="50" height="50" viewBox="0 0 50 50" fill="none" xmlns="http://www.w3.org/2000/svg">
<path d="M36.9993 29.8443V33.0301C37.0006 33.3258 36.9346 33.6186 36.8056 33.8896C36.6766 34.1606 36.4873 34.4038 36.25 34.6037C36.0127 34.8037 35.7325 34.9559 35.4274 35.0507C35.1223 35.1454 34.799 35.1806 34.4783 35.154C30.9197 34.7989 27.5015 33.6823 24.4982 31.8938C21.7041 30.2634 19.3352 28.088 17.5596 25.5222C15.6052 22.7518 14.389 19.5976 14.0094 16.3151C13.9805 16.0215 14.0185 15.7255 14.121 15.4461C14.2235 15.1666 14.3882 14.9099 14.6047 14.6921C14.8212 14.4743 15.0846 14.3003 15.3784 14.1812C15.6721 14.0621 15.9896 14.0004 16.3107 14.0001H19.78C20.3412 13.995 20.8853 14.1775 21.3108 14.5136C21.7364 14.8496 22.0143 15.3163 22.0929 15.8266C22.2393 16.8462 22.5109 17.8472 22.9024 18.8107C23.058 19.1908 23.0916 19.6039 22.9994 20.001C22.9072 20.3981 22.6929 20.7627 22.382 21.0514L20.9133 22.4001C22.5595 25.0587 24.9567 27.26 27.8519 28.7717L29.3206 27.423C29.635 27.1375 30.032 26.9408 30.4644 26.8561C30.8969 26.7714 31.3467 26.8023 31.7606 26.9452C32.8098 27.3047 33.9 27.5541 35.0102 27.6885C35.572 27.7613 36.085 28.0211 36.4518 28.4186C36.8185 28.8161 37.0134 29.3235 36.9993 29.8443Z" stroke="white" stroke-linecap="round" stroke-linejoin="round"/>
</svg>
