<svg xmlns="http://www.w3.org/2000/svg" xmlns:xlink="http://www.w3.org/1999/xlink" viewBox="0 0 333.25 436.25"><defs><style>.cls-1{fill:url(#Dégradé_sans_nom_14);}</style><linearGradient id="Dégradé_sans_nom_14" x1="319.49" y1="187.42" x2="105.37" y2="401.54" gradientUnits="userSpaceOnUse"><stop offset="0" stop-color="#f6db95"/><stop offset="0.31" stop-color="#e1ba58"/><stop offset="0.81" stop-color="#daaf44"/><stop offset="1" stop-color="#ae7f2c"/></linearGradient></defs><title>Plan de travail 1 copie 9</title><g id="milieu"><g id="plan_de_travail_6" data-name="plan de travail 6"><path class="cls-1" d="M319.87,310.78q-13.38-18.07-36.42-24.52,19.51-8.38,30.85-23.73a57.76,57.76,0,0,0,11.33-35.25q0-37.5-23.34-56.64T232.66,151.5h-93V435.87h98.63A153.33,153.33,0,0,0,262.92,434l-22-28.83-1.84,0H177.2V302.87h62.5q55.85,0,55.85,51.36,0,14.41-5.53,25.07l23,30.28q20.2-21.18,20.21-55.74Q333.25,328.85,319.87,310.78Zm-46.68-50.32q-14.74,12.33-39.35,12.33H177.2V182.16h55.46q27.93,0,41.61,10.67T287.94,227Q287.94,248.13,273.19,260.46Z"/><polygon points="209.05 272.79 177.2 272.79 177.2 230.89 209.05 272.79"/><path d="M319.45.83H250.16L57.92,214.77V.83H.57V419.9a11.75,11.75,0,1,1,0,6.92v8.88H57.92v-148l52.16-54.22,29.62,38.86V151.5h45.48ZM41,1.37A11.75,11.75,0,1,1,29.25,13.12,11.75,11.75,0,0,1,41,1.37ZM35.3,215.73a11.75,11.75,0,1,1-11.75,11.75A11.75,11.75,0,0,1,35.3,215.73ZM17.5,199.37a11.75,11.75,0,1,1,11.75,11.75A11.75,11.75,0,0,1,17.5,199.37Zm20.55,44.46A11.75,11.75,0,1,1,26.3,255.58,11.75,11.75,0,0,1,38.05,243.83ZM35.3,27.12A11.75,11.75,0,1,1,23.55,38.87,11.75,11.75,0,0,1,35.3,27.12ZM31.8,52.87A11.75,11.75,0,1,1,20.05,64.62,11.75,11.75,0,0,1,31.8,52.87ZM29.25,78.62A11.75,11.75,0,1,1,17.5,90.37,11.75,11.75,0,0,1,29.25,78.62ZM26.3,104.37a11.75,11.75,0,1,1-11.75,11.75A11.75,11.75,0,0,1,26.3,104.37Zm-2.75,28.68A11.75,11.75,0,1,1,11.8,144.8,11.75,11.75,0,0,1,23.55,133.05Zm0,28.67A11.75,11.75,0,1,1,11.8,173.47,11.75,11.75,0,0,1,23.55,161.72Zm0,245.46A11.75,11.75,0,1,1,35.3,395.43,11.75,11.75,0,0,1,23.55,407.18Zm8.75-27.94a11.75,11.75,0,1,1,11.75-11.75A11.75,11.75,0,0,1,32.3,379.24Zm5.75-27.93A11.75,11.75,0,1,1,49.8,339.56,11.76,11.76,0,0,1,38.05,351.31Zm3-27.94a11.75,11.75,0,1,1,11.75-11.75A11.75,11.75,0,0,1,41,323.37Zm0-27.93A11.75,11.75,0,1,1,52.8,283.69,11.76,11.76,0,0,1,41.05,295.44Z"/><polygon points="332.89 435.7 264.2 435.7 262.92 434.02 240.95 405.19 177.2 321.56 177.2 302.87 231.92 302.87 290.02 379.3 313.04 409.58 332.89 435.7"/></g></g></svg>